<?xml version="1.0" standalone="no"?><!DOCTYPE svg PUBLIC "-//W3C//DTD SVG 1.1//EN" "http://www.w3.org/Graphics/SVG/1.1/DTD/svg11.dtd"><svg t="1658975601544" class="icon" viewBox="0 0 1024 1024" version="1.1" xmlns="http://www.w3.org/2000/svg" p-id="2175" data-darkreader-inline-fill="" xmlns:xlink="http://www.w3.org/1999/xlink" width="200" height="200"><defs><style type="text/css"></style></defs><path d="M0 0m288.820513 0l446.358974 0q288.820513 0 288.820513 288.820513l0 446.358974q0 288.820513-288.820513 288.820513l-446.358974 0q-288.820513 0-288.820513-288.820513l0-446.358974q0-288.820513 288.820513-288.820513Z" fill="#FF9D4D" p-id="2176" data-darkreader-inline-fill="" style="--darkreader-inline-fill:#9e4700;"></path><path d="M0 0m249.435897 0l525.128206 0q249.435897 0 249.435897 249.435897l0 525.128206q0 249.435897-249.435897 249.435897l-525.128206 0q-249.435897 0-249.435897-249.435897l0-525.128206q0-249.435897 249.435897-249.435897Z" fill="#6DC8EC" p-id="2177" data-darkreader-inline-fill="" style="--darkreader-inline-fill:#116485;"></path><path d="M512 918.974359c-97.332513 0-170.666667-174.867692-170.666667-406.974359S414.667487 105.025641 512 105.025641s170.666667 174.867692 170.666667 406.974359-73.334154 406.974359-170.666667 406.974359z m0-774.117744c-62.017641 0-130.822564 150.606769-130.822564 367.143385 0 216.077128 68.791795 367.143385 130.822564 367.143385 62.017641 0 130.822564-150.606769 130.822564-367.143385 0-216.077128-68.791795-367.143385-130.822564-367.143385z" fill="#FFFFFF" fill-opacity=".52" p-id="2178" data-darkreader-inline-fill="" style="--darkreader-inline-fill:#181a1b;"></path><path d="M757.142974 787.692308c-94.680615 0-232.342974-61.479385-347.136-142.401641-139.487179-98.107077-238.276923-216.549744-251.076923-301.095385-4.122256-28.488205 0.918974-51.987692 15.097436-70.971077 66.297436-85.897846 276.230564-9.951179 439.965539 105.32759 139.487179 98.107077 238.276923 216.549744 251.076923 301.095384 4.122256 28.488205-0.918974 51.987692-15.097436 70.971077C830.332718 776.402051 797.394051 787.692308 757.156103 787.692308zM266.857026 276.388103c-29.275897 0-50.307282 6.787282-60.822975 20.795076-7.31241 9.951179-10.056205 23.499487-7.31241 40.697436 11.421538 73.675487 105.642667 183.991795 234.614154 274.852103 180.644103 127.041641 347.582359 161.844513 384.630154 113.926564 7.31241-9.938051 10.056205-23.499487 7.31241-40.697436-11.421538-73.675487-105.642667-183.978667-234.614154-274.852102-128.971487-90.873436-251.090051-134.721641-323.807179-134.721641z" fill="#FFFFFF" fill-opacity=".52" p-id="2179" data-darkreader-inline-fill="" style="--darkreader-inline-fill:#181a1b;"></path><path d="M266.988308 787.692308c-40.224821 0-73.124103-11.290256-92.790154-37.060923-14.178462-18.523897-19.652923-42.482872-15.084308-70.944821 12.8-84.506256 111.537231-202.909538 250.945641-300.977231 163.643077-115.239385 373.458051-191.619282 439.742359-105.288205 14.178462 18.510769 19.652923 42.469744 15.084308 70.944821-12.8 84.506256-111.537231 202.909538-250.945641 300.97723C499.2 726.226051 361.61641 787.692308 266.988308 787.692308z m490.023384-511.120411c-72.677744 0-194.730667 43.848205-323.636513 134.669129-128.905846 90.847179-223.520821 201.557333-234.496 274.773333-2.743795 17.171692 0 31.179487 7.312411 40.671179 37.021538 48.351179 204.327385 13.101949 384.433231-113.887179 128.905846-90.834051 223.520821-201.557333 234.496-274.773333 2.743795-17.158564 0-31.179487-7.312411-40.67118-10.515692-13.548308-31.547077-20.781949-60.796718-20.781949z" fill="#FFFFFF" fill-opacity=".52" p-id="2180" data-darkreader-inline-fill="" style="--darkreader-inline-fill:#181a1b;"></path><path d="M170.666667 426.666667a45.948718 45.948718 0 1 0 91.897436 0 45.948718 45.948718 0 0 0-91.897436 0zM695.794872 256a45.948718 45.948718 0 1 0 91.897436 0 45.948718 45.948718 0 0 0-91.897436 0zM564.512821 820.512821a45.948718 45.948718 0 1 0 91.897435 0 45.948718 45.948718 0 0 0-91.897435 0zM433.230769 512a78.769231 78.769231 0 1 0 157.564718 0A78.769231 78.769231 0 0 0 433.230769 512z" fill="#FFFFFF" p-id="2181" data-darkreader-inline-fill="" style="--darkreader-inline-fill:#181a1b;"></path></svg>