<?xml version="1.0" standalone="no"?><!DOCTYPE svg PUBLIC "-//W3C//DTD SVG 1.1//EN" "http://www.w3.org/Graphics/SVG/1.1/DTD/svg11.dtd"><svg t="1658975588016" class="icon" viewBox="0 0 1024 1024" version="1.1" xmlns="http://www.w3.org/2000/svg" p-id="1492" data-darkreader-inline-fill="" xmlns:xlink="http://www.w3.org/1999/xlink" width="200" height="200"><defs><style type="text/css"></style></defs><path d="M0 0m249.435897 0l525.128206 0q249.435897 0 249.435897 249.435897l0 525.128206q0 249.435897-249.435897 249.435897l-525.128206 0q-249.435897 0-249.435897-249.435897l0-525.128206q0-249.435897 249.435897-249.435897Z" fill="#9270CA" p-id="1493" data-darkreader-inline-fill="" style="--darkreader-inline-fill:#4b2e7b;"></path><path d="M761.435897 249.435897H275.692308v32.820513h13.128205V722.051282a78.769231 78.769231 0 0 0 78.769231 78.769231h288.820512a78.769231 78.769231 0 0 0 78.769231-78.769231V315.076923l26.25641-65.641026z" fill="#FFFFFF" opacity=".4" p-id="1494" data-darkreader-inline-fill="" style="--darkreader-inline-fill:#181a1b;"></path><path d="M722.051282 459.487179l-77.758359 16.909129a257.129026 257.129026 0 0 1-143.517538-9.977436 257.142154 257.142154 0 0 0-112.167385-14.808616L301.948718 459.487179v262.564103a65.641026 65.641026 0 0 0 65.641026 65.641026h288.820512a65.641026 65.641026 0 0 0 65.641026-65.641026V459.487179z" fill="#FFFFFF" opacity=".5" p-id="1495" data-darkreader-inline-fill="" style="--darkreader-inline-fill:#181a1b;"></path><path d="M301.948718 459.487179l58.971897 9.321026c43.414974 6.839795 87.748923 5.133128 130.494359-5.041231a336.699077 336.699077 0 0 1 146.65518-2.087384L722.051282 479.179487V722.051282a65.641026 65.641026 0 0 1-65.641026 65.641026H367.589744a65.641026 65.641026 0 0 1-65.641026-65.641026V459.487179z" fill="#FFFFFF" fill-opacity=".51" p-id="1496" data-darkreader-inline-fill="" style="--darkreader-inline-fill:#181a1b;"></path></svg>