<svg width="78" height="78" viewBox="0 0 78 78" fill="none" xmlns="http://www.w3.org/2000/svg">
<rect width="78" height="78" rx="19" fill="#269A99"/>
<path d="M50 18C50 16.8954 49.1046 16 48 16H32C30.8954 16 30 16.8954 30 18V34C30 35.1046 30.8954 36 32 36H48C49.1046 36 50 35.1046 50 34V18ZM44 32C44 32.5523 43.5523 33 43 33H37C36.4477 33 36 32.5523 36 32C36 31.4477 36.4477 31 37 31H43C43.5523 31 44 31.4477 44 32Z" fill="white"/>
<path d="M37 42C37 40.8954 36.1046 40 35 40H19C17.8954 40 17 40.8954 17 42V58C17 59.1046 17.8954 60 19 60H35C36.1046 60 37 59.1046 37 58V42ZM31 56C31 56.5523 30.5523 57 30 57H24C23.4477 57 23 56.5523 23 56C23 55.4477 23.4477 55 24 55H30C30.5523 55 31 55.4477 31 56Z" fill="white"/>
<path d="M59 40C60.1046 40 61 40.8954 61 42V58C61 59.1046 60.1046 60 59 60H43C41.8954 60 41 59.1046 41 58V42C41 40.8954 41.8954 40 43 40H59ZM54 55H48C47.4477 55 47 55.4477 47 56C47 56.5523 47.4477 57 48 57H54C54.5523 57 55 56.5523 55 56C55 55.4477 54.5523 55 54 55Z" fill="white"/>
</svg>
