<svg width="78" height="78" viewBox="0 0 78 78" fill="none" xmlns="http://www.w3.org/2000/svg">
<rect width="78" height="78" rx="19" fill="#269A99"/>
<path fill-rule="evenodd" clip-rule="evenodd" d="M20 19C20 17.8954 20.8954 17 22 17H56C57.1046 17 58 17.8954 58 19V59C58 60.1046 57.1046 61 56 61H22C20.8954 61 20 60.1046 20 59V19ZM45.6283 27H34.9661L29.8232 40.5H35.3573L34.0115 55.3032L49.438 34H43.1283L45.6283 27ZM34.1764 37.5L37.0336 30H41.3713L38.8713 37H43.5616L37.9881 44.6968L38.6424 37.5H34.1764Z" fill="white"/>
</svg>
