<?xml version="1.0" standalone="no"?><!DOCTYPE svg PUBLIC "-//W3C//DTD SVG 1.1//EN" "http://www.w3.org/Graphics/SVG/1.1/DTD/svg11.dtd"><svg t="1658975593409" class="icon" viewBox="0 0 1024 1024" version="1.1" xmlns="http://www.w3.org/2000/svg" p-id="1764" data-darkreader-inline-fill="" xmlns:xlink="http://www.w3.org/1999/xlink" width="200" height="200"><defs><style type="text/css"></style></defs><path d="M0 0m249.435897 0l525.128206 0q249.435897 0 249.435897 249.435897l0 525.128206q0 249.435897-249.435897 249.435897l-525.128206 0q-249.435897 0-249.435897-249.435897l0-525.128206q0-249.435897 249.435897-249.435897Z" fill="#F6BD16" p-id="1765" data-darkreader-inline-fill="" style="--darkreader-inline-fill:#8e6b05;"></path><path d="M467.035897 404.453744a13.128205 13.128205 0 0 0-13.128205-13.128206h-115.094974a13.128205 13.128205 0 0 0-13.128205 13.128206v37.993025a13.128205 13.128205 0 0 0 13.128205 13.128205h115.094974a13.128205 13.128205 0 0 0 13.128205-13.128205V404.48zM614.793846 622.605128a19.272205 19.272205 0 1 1 38.54441 0 19.272205 19.272205 0 0 1-38.54441 0z" fill="#FFFFFF" p-id="1766" data-darkreader-inline-fill="" style="--darkreader-inline-fill:#181a1b;"></path><path d="M236.307692 275.692308a26.25641 26.25641 0 0 0-26.25641 26.25641v422.898872a26.25641 26.25641 0 0 0 26.25641 26.25641h551.384616a26.25641 26.25641 0 0 0 26.25641-26.25641V301.948718a26.25641 26.25641 0 0 0-26.25641-26.25641H236.307692z m63.960616 77.08882h192.183795a13.128205 13.128205 0 0 1 13.128205 13.128205v115.081846a13.128205 13.128205 0 0 1-13.128205 13.128206H300.268308a13.128205 13.128205 0 0 1-13.128205-13.128206v-115.081846a13.128205 13.128205 0 0 1 13.128205-13.128205z m295.529025 0h127.934359a13.128205 13.128205 0 0 1 13.128205 13.128205v12.288a13.128205 13.128205 0 0 1-13.128205 13.128205h-127.934359a13.128205 13.128205 0 0 1-13.128205-13.128205v-12.288a13.128205 13.128205 0 0 1 13.128205-13.128205z m-13.128205 103.069539a13.128205 13.128205 0 0 1 13.128205-13.128205h127.934359a13.128205 13.128205 0 0 1 13.128205 13.128205v12.301128a13.128205 13.128205 0 0 1-13.128205 13.128205h-127.934359a13.128205 13.128205 0 0 1-13.128205-13.128205v-12.301128z m51.396923 108.937846a57.816615 57.816615 0 1 1 0 115.646359 57.816615 57.816615 0 0 1 0-115.646359z" fill="#FFFFFF" p-id="1767" data-darkreader-inline-fill="" style="--darkreader-inline-fill:#181a1b;"></path></svg>