<svg width="78" height="78" viewBox="0 0 78 78" fill="none" xmlns="http://www.w3.org/2000/svg">
<rect width="78" height="78" rx="19" fill="#9270CA"/>
<path d="M43.8285 19.8999C44.7012 18.9876 45.7418 18.2616 46.8902 17.7639C48.0385 17.2662 49.2717 17.0066 50.5186 17.0001C51.7654 16.9937 53.0012 17.2405 54.1544 17.7263C55.3075 18.2121 56.3552 18.9273 57.2369 19.8305C58.1186 20.7337 58.8167 21.8069 59.291 22.9882C59.7652 24.1695 60.0062 25.4354 59.9999 26.7127C59.9936 27.9899 59.7402 29.2533 59.2543 30.4296C58.7684 31.6059 58.0597 32.6719 57.1692 33.5659L52.8206 38.0175L55.1303 40.3819C55.6654 40.9305 55.9803 41.6647 56.0128 42.4395C56.0453 43.2143 55.793 43.9734 55.3057 44.567L55.1303 44.7653L51.3943 48.5893C50.827 49.1703 50.0577 49.4966 49.2555 49.4966C48.4534 49.4966 47.6841 49.1703 47.1168 48.5893L43.1403 44.5174L30.4076 57.5621L21.2234 59L19 56.7223L20.1359 47.5853L33.1348 34.2678L29.1613 30.1959C28.6259 29.6475 28.3108 28.9135 28.278 28.1386C28.2452 27.3638 28.4973 26.6046 28.9843 26.0108L29.1613 25.8125L32.8958 21.9885C33.4631 21.4075 34.2324 21.0812 35.0345 21.0812C35.8367 21.0812 36.606 21.4075 37.1733 21.9885L39.4799 24.3514L43.8285 19.8999ZM35.033 24.1794L31.3016 28.0034L49.257 46.3968L52.993 42.5713L35.0361 24.1779L35.033 24.1794Z" fill="white"/>
</svg>
