<?xml version="1.0" standalone="no"?><!DOCTYPE svg PUBLIC "-//W3C//DTD SVG 1.1//EN" "http://www.w3.org/Graphics/SVG/1.1/DTD/svg11.dtd"><svg t="1658975539253" class="icon" viewBox="0 0 1036 1024" version="1.1" xmlns="http://www.w3.org/2000/svg" p-id="1082" data-darkreader-inline-fill="" xmlns:xlink="http://www.w3.org/1999/xlink" width="202.34375" height="200"><defs><style type="text/css"></style></defs><path d="M894.379747 205.124051v613.751898H142.582278v-613.751898h751.797469z m-777.721519-25.924051v665.6h803.645569v-665.6H116.658228z" fill="#142969" p-id="1083" data-darkreader-inline-fill="" style="--darkreader-inline-fill:#102154;"></path><path d="M479.594937 691.2c85.899342 0 155.544304-68.763544 155.544304-153.6s-69.644962-153.6-155.544304-153.6-155.544304 68.763544-155.544304 153.6 69.644962 153.6 155.544304 153.6zM725.873418 422.393519h64.810126v38.393519h-64.810126zM725.873418 537.6h64.810126v38.393519h-64.810126z" fill="#3586FF" p-id="1084" data-darkreader-inline-fill="" style="--darkreader-inline-fill:#0045ac;"></path><path d="M789.607696 708.815392h-531.443038v-25.92405h531.443038v25.92405zM485.298228 306.603747v234.62562H268.35281v-12.962025l-12.897215-1.270279A241.689924 241.689924 0 0 1 449.134177 313.745823l36.164051-7.142076zM283.142481 515.305316H459.374177V338.140354l-5.223696 1.036962a215.778835 215.778835 0 0 0-171.008 176.128z" fill="#142969" p-id="1085" data-darkreader-inline-fill="" style="--darkreader-inline-fill:#102154;"></path></svg>