<svg width="78" height="78" viewBox="0 0 78 78" fill="none" xmlns="http://www.w3.org/2000/svg">
<rect width="78" height="78" rx="19" fill="#5985E4"/>
<path d="M15.0056 62.7701C14.0252 61.8079 12.8852 59.6496 16.2658 56.005C19.4284 52.5922 25.364 47.4862 30.6008 42.9812C32.0297 41.7521 33.3923 40.5798 34.6152 39.5134L32.7036 37.6744C31.8302 37.238 30.8224 37.1914 29.7579 37.1422C28.4378 37.0811 26.9414 37.0119 25.5518 36.1477C24.7739 35.6651 24.1008 35.1299 23.3701 34.4129C23.0325 34.0815 22.7059 33.7361 22.36 33.3704C22.2436 33.2474 22.1245 33.1214 22.0014 32.9922C21.7662 32.7452 21.5646 32.5397 21.3696 32.3409C20.6417 31.5989 20.0668 31.0128 18.6916 29.2165C18.1303 28.4833 17.7616 28.0271 17.4923 27.694C16.8315 26.8765 16.7024 26.7031 16.0197 25.3745C15.9354 25.2105 15.8584 25.0613 15.7878 24.9243C14.9668 23.3333 14.9295 23.2335 14.4605 21.3649C13.8907 19.0954 14.5135 17.6997 15.1362 16.9284C15.8317 16.0669 16.6829 15.7813 16.7776 15.7516L17.3238 15.5802L17.7349 15.9766C17.7349 15.9766 29.6517 27.4661 38.5078 36.002C39.245 35.2889 39.5511 34.9305 39.6754 34.751C39.7675 34.6178 39.9079 34.2626 39.8064 33.3932C39.725 32.6948 39.5209 31.9476 39.3569 31.3472C39.2689 31.0251 39.1922 30.7445 39.1478 30.5178C38.6008 28.4368 38.8468 25.2806 43.0683 21.9954C44.8834 20.5817 46.9755 19.1674 48.9987 17.7998C50.7162 16.6389 52.3383 15.5424 53.7202 14.4983L54.3799 14L56.5113 16.0722L44.1489 28.5431L45.0017 29.3743L57.3626 16.9051L58.221 17.7391L60.8631 20.3208L48.5026 32.7901L49.5144 33.7757L61.8752 21.3056L64 23.3735L63.5134 24.04C62.4945 25.4356 61.4281 27.0705 60.2991 28.8013C58.9673 30.8432 57.5901 32.9546 56.2068 34.7914C52.9927 39.0571 49.8234 39.3693 47.719 38.8705C47.4724 38.8279 47.1727 38.7491 46.7982 38.6506C45.9525 38.4283 43.9719 37.9077 43.3654 38.3418C43.1874 38.4693 42.8333 38.775 42.1322 39.4952C45.7371 42.9691 47.6717 44.8322 47.886 45.0363L53.3763 50.3284L53.3922 50.3138L54.0457 50.9602C56.3881 53.2769 57.8235 54.8566 59.0001 56.4127C60.0975 57.8602 60.6274 59.2365 60.5744 60.5025C60.5291 61.5825 60.0507 62.3587 59.5976 62.7463C58.8629 63.4917 57.9563 63.8928 56.9725 63.9071C55.7101 63.9255 54.4341 63.3108 53.18 62.0801C53.0039 61.9074 52.8259 61.7197 52.6509 61.5226C48.7579 57.137 41.6648 48.3162 38.1366 43.8957C37.0558 45.1247 35.88 46.4763 34.6489 47.8913C30.2501 52.9479 25.2643 58.6791 22.0075 61.7955C18.4841 65.1639 16.1939 63.9356 15.1422 62.9035C15.1188 62.8806 15.0965 62.8582 15.0752 62.8367C15.0525 62.8155 15.0293 62.7933 15.0056 62.7701Z" fill="white"/>
</svg>
