<?xml version="1.0" standalone="no"?><!DOCTYPE svg PUBLIC "-//W3C//DTD SVG 1.1//EN" "http://www.w3.org/Graphics/SVG/1.1/DTD/svg11.dtd"><svg t="1658975585534" class="icon" viewBox="0 0 1024 1024" version="1.1" xmlns="http://www.w3.org/2000/svg" p-id="1357" data-darkreader-inline-fill="" xmlns:xlink="http://www.w3.org/1999/xlink" width="200" height="200"><defs><style type="text/css"></style></defs><path d="M0 0m249.435897 0l525.128206 0q249.435897 0 249.435897 249.435897l0 525.128206q0 249.435897-249.435897 249.435897l-525.128206 0q-249.435897 0-249.435897-249.435897l0-525.128206q0-249.435897 249.435897-249.435897Z" fill="#5D7092" p-id="1358" data-darkreader-inline-fill="" style="--darkreader-inline-fill:#4a5a75;"></path><path d="M610.67159 252.849231l-1.75918-0.840205a34.855385 34.855385 0 0 0-35.971282 5.973333c-8.84841 8.100103-39.187692 31.337026-60.980513 31.337026-21.622154 0-52.013949-23.236923-60.980512-31.337026a34.855385 34.855385 0 0 0-36.023795-5.973333l-87.591385 49.755897-1.627897 1.076513a33.64759 33.64759 0 0 0-12.65559 33.608205c2.783179 11.644718 7.995077 49.033846-2.861949 67.518359-10.804513 18.523897-46.526359 32.768-58.105436 36.338872a35.577436 35.577436 0 0 0-23.683282 26.466461l-0.039384 0.262564c-0.538256 3.229538-5.211897 30.956308-5.211898 51.580718 0 21.044513 4.857436 49.598359 5.251282 51.79077v0.091897a35.577436 35.577436 0 0 0 23.630769 26.466462c11.63159 3.649641 47.353436 17.893744 58.118565 36.286359 10.817641 18.405744 5.553231 55.926154 2.901333 67.518359a33.93641 33.93641 0 0 0 12.65559 33.608205l87.591384 49.913436 1.75918 0.840205c12.169846 4.936205 26.125128 2.625641 35.971282-5.973334 8.84841-8.100103 39.187692-31.337026 60.980513-31.337025 21.622154 0 52.013949 23.236923 60.980512 31.337025 6.367179 5.513846 14.559179 8.533333 23.026872 8.493949a35.577436 35.577436 0 0 0 12.996923-2.520615l87.591385-49.755898 1.627897-1.076513a33.726359 33.726359 0 0 0 12.65559-33.608205c-2.783179-11.644718-7.995077-49.033846 2.861949-67.518359 10.804513-18.523897 46.526359-32.768 58.105436-36.338871a35.577436 35.577436 0 0 0 23.683282-26.466462l0.039384-0.262564c0.538256-3.229538 5.211897-30.956308 5.211898-51.580718 0-21.044513-4.857436-49.598359-5.251282-51.790769v-0.091898a35.577436 35.577436 0 0 0-23.630769-26.466461c-11.63159-3.649641-47.353436-17.893744-58.118565-36.299487-10.804513-18.392615-5.553231-55.913026-2.901333-67.505231a33.93641 33.93641 0 0 0-12.65559-33.608205l-87.591384-49.913436zM630.153846 525.128205c0 65.142154-53.011692 118.153846-118.193231 118.153846A118.232615 118.232615 0 0 1 393.846154 525.128205c0-65.142154 53.011692-118.153846 118.193231-118.153846A118.232615 118.232615 0 0 1 630.153846 525.128205z" fill="#FFFFFF" p-id="1359" data-darkreader-inline-fill="" style="--darkreader-inline-fill:#181a1b;"></path></svg>