<svg width="78" height="78" viewBox="0 0 78 78" fill="none" xmlns="http://www.w3.org/2000/svg">
<rect width="78" height="78" rx="19" fill="#6DC8EC"/>
<path fill-rule="evenodd" clip-rule="evenodd" d="M38.4774 16L39.3322 16.6493C43.1339 19.5371 48.5927 21.5413 55.7123 22.5119L57.0097 22.6887V44.53C57.0097 48.1313 55.3352 51.4506 52.303 54.4482C49.2875 57.4294 44.8623 60.1663 39.1439 62.6785L38.5088 62.9576L37.8849 62.6544C32.1577 59.8713 27.7368 57.0024 24.7274 54.04C21.7166 51.0761 20 47.8947 20 44.53V22.7359L21.4033 22.6453C26.6463 22.3067 32.0762 20.311 37.587 16.5996L38.4774 16ZM46 45.655C45.2028 45.3694 44.3322 44.9178 43.3881 44.3001C44.1643 43.5895 44.7448 42.7559 45.1294 41.7995C45.514 40.8364 45.7063 39.7538 45.7063 38.5517C45.7063 37.1038 45.4056 35.8053 44.8042 34.6563C44.2098 33.5006 43.3427 32.604 42.2028 31.9664C41.0629 31.3221 39.7832 31 38.3636 31C36.958 31 35.6853 31.3088 34.5455 31.9265C33.4126 32.5442 32.5385 33.4442 31.9231 34.6264C31.3077 35.8086 31 37.1204 31 38.5616C31 40.0095 31.3042 41.3113 31.9126 42.467C32.528 43.6227 33.4021 44.5193 34.535 45.1569C35.6678 45.7945 36.9301 46.1133 38.3217 46.1133C39.6993 46.1133 40.958 45.8111 42.0979 45.2067C43.1958 46.0237 44.2972 46.6214 45.4021 47L46 45.655ZM41.8147 43.2242C41.0524 42.6065 40.0839 42.1416 38.9091 41.8294L38.4161 43.2341C39.1224 43.4002 39.7937 43.6791 40.4301 44.071C39.7867 44.33 39.1014 44.4595 38.3741 44.4595C36.8357 44.4595 35.5699 43.9514 34.5769 42.9352C33.5909 41.9191 33.0979 40.4612 33.0979 38.5616C33.0979 36.6023 33.5979 35.1312 34.5979 34.1482C35.5979 33.1586 36.8566 32.6638 38.3741 32.6638C39.3881 32.6638 40.3007 32.9095 41.1119 33.401C41.9301 33.8858 42.549 34.5699 42.9685 35.4533C43.3951 36.3367 43.6084 37.3694 43.6084 38.5517C43.6084 40.6306 43.0105 42.188 41.8147 43.2242Z" fill="white"/>
</svg>
