<?xml version="1.0" standalone="no"?><!DOCTYPE svg PUBLIC "-//W3C//DTD SVG 1.1//EN" "http://www.w3.org/Graphics/SVG/1.1/DTD/svg11.dtd"><svg t="1658975590656" class="icon" viewBox="0 0 1024 1024" version="1.1" xmlns="http://www.w3.org/2000/svg" p-id="1629" data-darkreader-inline-fill="" xmlns:xlink="http://www.w3.org/1999/xlink" width="200" height="200"><defs><style type="text/css"></style></defs><path d="M0 0m249.435897 0l525.128206 0q249.435897 0 249.435897 249.435897l0 525.128206q0 249.435897-249.435897 249.435897l-525.128206 0q-249.435897 0-249.435897-249.435897l0-525.128206q0-249.435897 249.435897-249.435897Z" fill="#269A99" p-id="1630" data-darkreader-inline-fill="" style="--darkreader-inline-fill:#1e7b7a;"></path><path d="M708.923077 813.948718H315.076923v-39.384615h393.846154v39.384615zM196.923077 210.051282a26.25641 26.25641 0 0 0-26.25641 26.25641v446.358975a26.25641 26.25641 0 0 0 26.25641 26.25641h630.153846a26.25641 26.25641 0 0 0 26.25641-26.25641V236.307692a26.25641 26.25641 0 0 0-26.25641-26.25641H196.923077z m368.298667 329.084718l-130.218667-117.195487-150.974359 175.130256-29.827282-25.731282 177.230769-205.587692 132.358564 119.112205 157.459693-157.459692 27.844923 27.858051-183.873641 183.873641z" fill="#FFFFFF" p-id="1631" data-darkreader-inline-fill="" style="--darkreader-inline-fill:#181a1b;"></path></svg>