<?xml version="1.0" standalone="no"?><!DOCTYPE svg PUBLIC "-//W3C//DTD SVG 1.1//EN" "http://www.w3.org/Graphics/SVG/1.1/DTD/svg11.dtd"><svg t="1658975583018" class="icon" viewBox="0 0 1024 1024" version="1.1" xmlns="http://www.w3.org/2000/svg" p-id="1218" data-darkreader-inline-fill="" xmlns:xlink="http://www.w3.org/1999/xlink" width="200" height="200"><defs><style type="text/css"></style></defs><path d="M512 890.88c212.3776 0 384-169.9328 384-378.88S724.3776 133.12 512 133.12 128 303.0528 128 512s171.6224 378.88 384 378.88zM921.6 512c0 223.3856-183.3856 404.48-409.6 404.48C285.7856 916.48 102.4 735.3856 102.4 512S285.7856 107.52 512 107.52c226.2144 0 409.6 181.0944 409.6 404.48z" fill="#324364" p-id="1219" data-darkreader-inline-fill="" style="--darkreader-inline-fill:#283650;"></path><path d="M512 575.2064c35.3408 0 64-28.3008 64-63.2064s-28.6592-63.2064-64-63.2064-64 28.3008-64 63.2064 28.6592 63.2064 64 63.2064z" fill="#FF7E35" p-id="1220" data-darkreader-inline-fill="" style="--darkreader-inline-fill:#ff843f;"></path><path d="M499.2 717.4912v-404.48h25.6v404.48h-25.6zM332.8 704.8448V313.0112h25.6v391.8336h-25.6z" fill="#324364" p-id="1221" data-darkreader-inline-fill="" style="--darkreader-inline-fill:#283650;"></path><path d="M345.6 410.88c28.288 0 51.2-22.6432 51.2-50.56s-22.912-50.56-51.2-50.56-51.2 22.6304-51.2 50.56c0 27.9168 22.912 50.56 51.2 50.56zM345.6 714.24c28.288 0 51.2-22.6304 51.2-50.56 0-27.9168-22.912-50.56-51.2-50.56s-51.2 22.6432-51.2 50.56 22.912 50.56 51.2 50.56z" fill="#FF7E35" p-id="1222" data-darkreader-inline-fill="" style="--darkreader-inline-fill:#ac3e00;"></path><path d="M665.6 704.8448V313.0112h25.6v391.8336h-25.6z" fill="#324364" p-id="1223" data-darkreader-inline-fill="" style="--darkreader-inline-fill:#283650;"></path><path d="M678.4 410.88c28.288 0 51.2-22.6432 51.2-50.56s-22.912-50.56-51.2-50.56-51.2 22.6304-51.2 50.56c0 27.9168 22.912 50.56 51.2 50.56zM678.4 714.24c28.288 0 51.2-22.6304 51.2-50.56 0-27.9168-22.912-50.56-51.2-50.56s-51.2 22.6432-51.2 50.56 22.912 50.56 51.2 50.56z" fill="#FF7E35" p-id="1224" data-darkreader-inline-fill="" style="--darkreader-inline-fill:#ac3e00;"></path></svg>