<?xml version="1.0" standalone="no"?><!DOCTYPE svg PUBLIC "-//W3C//DTD SVG 1.1//EN" "http://www.w3.org/Graphics/SVG/1.1/DTD/svg11.dtd"><svg t="1658975603644" class="icon" viewBox="0 0 1024 1024" version="1.1" xmlns="http://www.w3.org/2000/svg" p-id="2314" data-darkreader-inline-fill="" xmlns:xlink="http://www.w3.org/1999/xlink" width="200" height="200"><defs><style type="text/css"></style></defs><path d="M0 0m249.435897 0l525.128206 0q249.435897 0 249.435897 249.435897l0 525.128206q0 249.435897-249.435897 249.435897l-525.128206 0q-249.435897 0-249.435897-249.435897l0-525.128206q0-249.435897 249.435897-249.435897Z" fill="#5985E4" p-id="2315" data-darkreader-inline-fill="" style="--darkreader-inline-fill:#173d8f;"></path><path d="M110.290051 589.942154h135.312411v116.289641H110.290051z" fill="#BCC4CC" p-id="2316" data-darkreader-inline-fill="" style="--darkreader-inline-fill:#c3beb6;"></path><path d="M500.420923 498.898051l-359.161436 60.652308 64.617026 82.865231-30.037334 93.853538L518.432821 639.737436l1.417846-0.210051c29.525333-4.831179 48.285538-39.936 41.918359-78.427898-6.091487-36.850872-33.030564-63.435487-61.229949-61.387487l-0.131282-0.813949z" fill="#F1F7FA" p-id="2317" data-darkreader-inline-fill="" style="--darkreader-inline-fill:#10242e;"></path><path d="M162.093949 426.981744h130.809436v112.41682h-130.809436z" fill="#BCC4CC" p-id="2318" data-darkreader-inline-fill="" style="--darkreader-inline-fill:#c3beb6;"></path><path d="M195.754667 397.600821l434.582974-58.630565 27.936821 134.774154-443.168821 95.796513 42.312205-88.405333-61.663179-83.534769z" fill="#FEFEFE" p-id="2319" data-darkreader-inline-fill="" style="--darkreader-inline-fill:#191b1c;"></path><path d="M685.384205 477.394051l-417.660718 72.769641 75.132718 99.446154-34.921026 112.64 398.296616-115.817025 1.890461-0.288821c34.172718-5.77641 55.899897-47.917949 48.521847-94.102974-7.076103-44.320821-38.386872-76.274872-71.102359-73.649231l-0.157539-0.997744z" fill="#F1F7FA" p-id="2320" data-darkreader-inline-fill="" style="--darkreader-inline-fill:#10242e;"></path><path d="M234.522256 300.635897l114.806154 8.205129-7.31241 102.268718-114.806154-8.205129z" fill="#BCC4CC" p-id="2321" data-darkreader-inline-fill="" style="--darkreader-inline-fill:#c3beb6;"></path><path d="M670.733128 377.212718c25.337436-2.454974 43.428103-32.781128 40.382359-67.741539-3.045744-34.934154-26.059487-61.282462-51.410051-58.827487h-0.026257v-0.078769l-393.36041 25.468718 45.79118 81.473641-19.403487 76.629333 369.913435-57.107692c2.665026 0.36759 5.382564 0.446359 8.113231 0.183795z" fill="#FEFEFE" p-id="2322" data-darkreader-inline-fill="" style="--darkreader-inline-fill:#191b1c;"></path><path d="M813.108513 494.933333c31.507692-6.275282 50.806154-45.279179 43.099897-87.145025-7.719385-41.865846-39.529026-70.721641-71.049846-64.459487a41.563897 41.563897 0 0 0-0.433231 0.078769L335.819487 396.629333l57.974154 92.829539-41.655795 98.855384 449.798564-92.606359a44.504615 44.504615 0 0 0 11.158975-0.787692z" fill="#EEF2F3" p-id="2323" data-darkreader-inline-fill="" style="--darkreader-inline-fill:#1c2628;"></path><path d="M391.141744 592.357744h188.363487v162.881641H391.141744z" fill="#BCC4CC" p-id="2324" data-darkreader-inline-fill="" style="--darkreader-inline-fill:#353d45;"></path><path d="M879.642256 467.298462l-447.054769 82.484512 82.825846 116.066462-38.505025 131.478974 444.205948-136.782769c37.691077-10.24 60.954256-57.265231 52.512821-108.570256-8.139487-49.558974-43.021128-85.858462-80.52841-86.147282l-0.144411-0.984616-8.467692 1.562257a56.306872 56.306872 0 0 0-4.844308 0.892718z" fill="#F1F7FA" p-id="2325" data-darkreader-inline-fill="" style="--darkreader-inline-fill:#10242e;"></path><path d="M320.761436 349.735385c1.68041 20.230564-1.956103 39.161436-9.294769 53.917538a45.948718 45.948718 0 0 1 18.418871-6.918564c35.446154-4.988718 69.592615 33.831385 76.301129 86.685538 6.708513 52.854154-16.567795 99.748103-52.000821 104.723693a46.014359 46.014359 0 0 1-23.84082-3.111385c11.290256 16.068923 19.666051 36.706462 23.276307 59.904 9.150359 58.774974-15.766974 111.76041-55.663589 118.350769-35.393641 5.855179-70.682256-26.781538-84.585026-75.264-7.141744 26.282667-23.893333 45.607385-45.922462 49.125744-34.461538 5.48759-68.791795-29.761641-76.708102-78.742974-7.903179-48.968205 13.627077-93.131487 48.088615-98.632206 29.065846-4.621128 58.039795 19.731692 71.154872 56.845129 7.062974-35.18359 27.411692-61.636923 54.836513-66.166154 10.89641-1.798564 21.766564 0.039385 32.019692 4.870564-9.478564-14.611692-16.331487-33.161846-18.957128-53.878154-3.505231-27.661128 1.194667-53.694359 11.55282-72.927179-4.857436 2.783179-10.108718 4.529231-15.675076 5.04123-11.63159 1.076513-22.843077-3.387077-32.413539-11.841641 10.962051 13.443282 19.167179 31.573333 22.488615 52.224 7.640615 47.353436-13.16759 90.046359-46.473846 95.350154-33.319385 5.316923-66.520615-28.763897-74.174359-76.117333-7.627487-47.353436 13.180718-90.033231 46.500103-95.350154 15.386256-2.454974 30.759385 3.505231 43.585641 15.294359-10.502564-13.325128-17.854359-32.137846-19.639795-53.458051-3.623385-43.546256 17.421128-81.079795 46.998974-83.810462 29.577846-2.756923 56.503795 30.339282 60.12718 73.898667z m-86.829949 7.08923c2.205538 26.453333 16.935385 46.710154 32.886154 45.226667 15.950769-1.470359 27.096615-24.116513 24.891077-50.582974-2.19241-26.453333-16.922256-46.697026-32.873026-45.226667-15.950769 1.483487-27.096615 24.129641-24.904205 50.582974zM165.979897 488.500513c4.647385 28.750769 22.974359 49.755897 40.946872 46.893949 17.959385-2.861949 28.763897-28.501333 24.129641-57.265231-4.647385-28.763897-22.974359-49.755897-40.946872-46.893949-17.959385 2.861949-28.763897 28.488205-24.129641 57.265231zM114.307282 653.561436c4.804923 29.748513 23.762051 51.462564 42.35159 48.49559 18.589538-2.953846 29.761641-29.472821 24.94359-59.234462-4.791795-29.748513-23.748923-51.462564-42.338462-48.508718-18.57641 2.966974-29.761641 29.485949-24.94359 59.24759z m171.15241 67.623385c-21.517128 3.557744-43.454359-22.501744-49.020718-58.197334-5.566359-35.708718 7.378051-67.531487 28.882052-71.089231 21.530256-3.544615 43.480615 22.501744 49.033846 58.210462 5.566359 35.708718-7.378051 67.531487-28.882051 71.076103z m58.669949-171.047385c-19.114667 2.691282-37.901128-21.162667-41.984-53.274257-4.069744-32.11159 8.113231-60.310974 27.227897-62.989128 19.101538-2.691282 37.901128 21.162667 41.970872 53.274257 4.069744 32.098462-8.113231 60.310974-27.214769 62.989128z" fill="#E1E7EC" p-id="2326" data-darkreader-inline-fill="" style="--darkreader-inline-fill:#26292b;"></path><path d="M537.665641 660.401231c11.001436 68.608-18.970256 130.454974-66.940718 138.148102-47.970462 7.693128-95.783385-41.682051-106.78482-110.276923-11.001436-68.608 18.970256-130.468103 66.940718-138.161231 47.970462-7.693128 95.770256 41.682051 106.78482 110.290052zM396.734359 681.485128c6.695385 41.668923 33.083077 72.086974 58.945641 67.938462 25.875692-4.148513 41.432615-41.301333 34.750359-82.970257-6.695385-41.682051-33.083077-72.100103-58.945641-67.938461-25.875692 4.148513-41.432615 41.288205-34.750359 82.970256z" fill="#E1E7EC" p-id="2327" data-darkreader-inline-fill="" style="--darkreader-inline-fill:#26292b;"></path><path d="M285.459692 721.184821c-21.517128 3.557744-43.454359-22.501744-49.020718-58.197334-5.566359-35.708718 7.378051-67.531487 28.882052-71.089231 21.530256-3.544615 43.480615 22.501744 49.033846 58.210462 5.566359 35.708718-7.378051 67.531487-28.882051 71.076103zM344.129641 550.137436c-19.114667 2.691282-37.901128-21.162667-41.984-53.274257-4.069744-32.11159 8.113231-60.310974 27.227897-62.989128 19.101538-2.691282 37.901128 21.162667 41.970872 53.274257 4.069744 32.098462-8.113231 60.310974-27.214769 62.989128z" fill="#BCC4CC" p-id="2328" data-darkreader-inline-fill="" style="--darkreader-inline-fill:#353d45;"></path></svg>