<?xml version="1.0" standalone="no"?><!DOCTYPE svg PUBLIC "-//W3C//DTD SVG 1.1//EN" "http://www.w3.org/Graphics/SVG/1.1/DTD/svg11.dtd"><svg t="1658975595901" class="icon" viewBox="0 0 1024 1024" version="1.1" xmlns="http://www.w3.org/2000/svg" p-id="1900" data-darkreader-inline-fill="" xmlns:xlink="http://www.w3.org/1999/xlink" width="200" height="200"><defs><style type="text/css"></style></defs><path d="M0 0m249.435897 0l525.128206 0q249.435897 0 249.435897 249.435897l0 525.128206q0 249.435897-249.435897 249.435897l-525.128206 0q-249.435897 0-249.435897-249.435897l0-525.128206q0-249.435897 249.435897-249.435897Z" fill="#E8684A" p-id="1901" data-darkreader-inline-fill="" style="--darkreader-inline-fill:#9a2d14;"></path><path d="M551.384615 472.615385m-91.897436 0a91.897436 91.897436 0 1 0 183.794872 0 91.897436 91.897436 0 1 0-183.794872 0Z" fill="#FFFFFF" p-id="1902" data-darkreader-inline-fill="" style="--darkreader-inline-fill:#e8e6e3;"></path><path d="M708.923077 761.435897m-52.512821 0a52.512821 52.512821 0 1 0 105.025641 0 52.512821 52.512821 0 1 0-105.025641 0Z" fill="#FFFFFF" p-id="1903" data-darkreader-inline-fill="" style="--darkreader-inline-fill:#e8e6e3;"></path><path d="M399.486086 706.577824m-25.257273-46.039835a52.512821 52.512821 0 1 0 50.514547 92.079671 52.512821 52.512821 0 1 0-50.514547-92.079671Z" fill="#FFFFFF" p-id="1904" data-darkreader-inline-fill="" style="--darkreader-inline-fill:#e8e6e3;"></path><path d="M787.692308 262.564103m-52.512821 0a52.512821 52.512821 0 1 0 105.025641 0 52.512821 52.512821 0 1 0-105.025641 0Z" fill="#FFFFFF" p-id="1905" data-darkreader-inline-fill="" style="--darkreader-inline-fill:#e8e6e3;"></path><path d="M210.051282 393.846154m-52.51282 0a52.512821 52.512821 0 1 0 105.025641 0 52.512821 52.512821 0 1 0-105.025641 0Z" fill="#FFFFFF" p-id="1906" data-darkreader-inline-fill="" style="--darkreader-inline-fill:#e8e6e3;"></path><path d="M708.923077 800.820513L564.512821 538.25641l34.514051-18.983384 144.410256 262.564102L708.923077 800.820513zM364.964103 725.517128L525.732103 472.615385l33.240615 21.13641-160.754872 252.888615-33.227487-21.13641zM564.512821 440.031179L784.265846 236.307692l26.781539 28.882052-219.766154 203.723487-26.76841-28.882052zM210.051282 367.589744l288.177231 82.143179-10.791385 37.874872-288.177231-82.14318L210.051282 367.589744z" fill="#FFFFFF" p-id="1907" data-darkreader-inline-fill="" style="--darkreader-inline-fill:#181a1b;"></path></svg>