<?xml version="1.0" standalone="no"?><!DOCTYPE svg PUBLIC "-//W3C//DTD SVG 1.1//EN" "http://www.w3.org/Graphics/SVG/1.1/DTD/svg11.dtd"><svg t="1658975599126" class="icon" viewBox="0 0 1024 1024" version="1.1" xmlns="http://www.w3.org/2000/svg" p-id="2040" data-darkreader-inline-fill="" xmlns:xlink="http://www.w3.org/1999/xlink" width="200" height="200"><defs><style type="text/css"></style></defs><path d="M0 0m249.435897 0l525.128206 0q249.435897 0 249.435897 249.435897l0 525.128206q0 249.435897-249.435897 249.435897l-525.128206 0q-249.435897 0-249.435897-249.435897l0-525.128206q0-249.435897 249.435897-249.435897Z" fill="#5985E4" p-id="2041" data-darkreader-inline-fill="" style="--darkreader-inline-fill:#173d8f;"></path><path d="M674.290872 280.352821a281.718154 281.718154 0 0 0-296.132923-20.269949 137.924923 137.924923 0 0 0-30.654359-46.30318l-1.181539-1.063384a339.154051 339.154051 0 0 1 363.625026 23.236923 85.333333 85.333333 0 1 1-35.656205 44.39959zM227.328 509.991385c0-35.498667 6.708513-70.550974 19.82359-103.476513a85.333333 85.333333 0 1 0-51.357539-24.418462 338.957128 338.957128 0 0 0-1.247179 253.059282A339.009641 339.009641 0 0 0 376.438154 821.825641c0.328205-19.587282 4.686769-38.728205 12.773743-56.516923a282.387692 282.387692 0 0 1-161.883897-255.34359zM602.440205 836.332308A85.35959 85.35959 0 0 1 433.230769 820.512821a85.333333 85.333333 0 0 1 160.426667-40.592411c141.705846-43.900718 225.700103-190.529641 191.081026-335.609436a143.189333 143.189333 0 0 0 53.326769-20.217436 339.062154 339.062154 0 0 1-235.638154 412.23877z" fill="#FFFFFF" p-id="2042" data-darkreader-inline-fill="" style="--darkreader-inline-fill:#181a1b;"></path></svg>